<?xml version="1.0" standalone="no"?>
<!DOCTYPE svg PUBLIC "-//W3C//DTD SVG 20010904//EN"
 "http://www.w3.org/TR/2001/REC-SVG-20010904/DTD/svg10.dtd">
<svg version="1.0" xmlns="http://www.w3.org/2000/svg"
 width="198.000000pt" height="198.000000pt" viewBox="0 0 198.000000 198.000000"
 preserveAspectRatio="xMidYMid meet">
<metadata>
Created by potrace 1.14, written by Peter Selinger 2001-2017
</metadata>
<g transform="translate(0.000000,198.000000) scale(0.100000,-0.100000)"
fill="#000000" stroke="none">
<path d="M327 1916 c-40 -24 -107 -97 -107 -115 0 -6 -4 -11 -10 -11 -15 0
-83 -115 -123 -210 -37 -86 -55 -214 -38 -275 17 -63 110 -145 165 -145 23 0
45 17 113 87 47 47 89 96 93 107 8 18 9 17 9 -11 1 -17 -4 -66 -10 -109 -6
-42 -8 -87 -5 -100 7 -25 52 -61 63 -51 6 7 37 205 47 297 3 30 11 83 19 118
8 35 10 65 5 68 -21 13 -1 23 87 44 52 12 97 26 100 30 9 14 -6 39 -28 46 -40
13 -104 5 -284 -37 -45 -10 -93 -19 -107 -19 -31 0 -34 -24 -8 -58 19 -24 58
-31 106 -17 26 7 28 6 21 -11 -4 -10 -8 -25 -8 -31 0 -7 -9 -15 -19 -19 -10
-3 -18 -13 -18 -22 0 -9 -14 -32 -30 -51 -17 -18 -30 -36 -30 -40 -1 -11 -105
-118 -127 -129 -87 -47 -121 57 -73 218 12 41 28 84 35 95 6 11 17 37 24 58 7
20 17 37 22 37 5 0 17 17 28 38 26 49 145 162 171 162 19 0 20 -4 14 -50 -4
-34 -3 -55 6 -65 21 -26 38 -17 55 30 23 58 14 106 -26 139 -38 33 -81 33
-132 2z"/>
<path d="M1807 1888 c-46 -41 -128 -158 -232 -336 l-60 -102 -47 0 c-35 0 -48
-4 -48 -15 0 -25 23 -65 37 -65 17 0 16 -1 -3 -47 -31 -71 -34 -78 -49 -122
-14 -40 -14 -47 1 -68 23 -35 47 -25 63 27 13 43 21 62 70 173 l21 47 91 0
c83 0 90 -2 85 -18 -4 -10 -7 -53 -9 -96 -2 -74 -1 -79 26 -102 16 -13 32 -22
36 -19 4 2 11 54 15 114 8 131 11 141 43 141 28 0 93 28 93 40 0 8 -50 20 -87
20 -18 0 -24 4 -20 14 3 8 9 32 13 53 3 21 15 70 26 110 44 164 41 235 -10
262 -27 14 -25 15 -55 -11z m-2 -185 c-9 -32 -18 -69 -21 -83 -2 -14 -9 -38
-14 -55 -4 -16 -11 -47 -15 -67 l-6 -38 -75 0 c-69 0 -74 1 -60 16 9 8 16 20
16 27 0 6 11 27 24 46 13 20 45 70 71 111 54 85 88 126 93 111 2 -5 -4 -36
-13 -68z"/>
<path d="M1056 1658 c-14 -134 -15 -139 -37 -125 -17 10 -22 9 -32 -4 -11 -14
-15 -15 -31 -4 -26 20 -68 2 -113 -49 -97 -108 -102 -121 -74 -179 25 -52 74
-83 115 -73 14 3 39 25 56 48 l30 41 0 -40 c0 -25 7 -48 20 -63 26 -30 50 -20
50 20 l0 31 26 -20 c34 -27 76 -19 130 25 52 42 113 130 120 175 5 31 2 39
-30 67 -31 27 -45 32 -86 32 -37 0 -55 -5 -71 -21 l-20 -20 5 33 c2 18 8 61
12 94 6 57 5 62 -17 78 -39 27 -47 20 -53 -46z m184 -196 c0 -15 -7 -39 -16
-52 -23 -34 -96 -110 -106 -110 -11 0 -10 47 2 68 5 9 16 33 25 54 10 21 29
42 48 52 43 21 47 20 47 -12z m-280 -10 c0 -5 -18 -34 -39 -65 -22 -30 -37
-57 -35 -60 3 -2 -7 -12 -22 -22 -34 -22 -49 -8 -32 31 7 16 35 50 61 77 45
45 67 57 67 39z"/>
<path d="M731 1535 c-16 -14 -33 -35 -36 -45 -8 -26 -23 -25 -27 1 -3 19 -52
58 -62 49 -2 -3 -6 -67 -7 -143 -3 -125 -1 -139 16 -156 11 -11 29 -21 40 -23
18 -3 21 4 26 58 10 101 98 224 162 224 9 0 17 7 17 16 0 48 -80 60 -129 19z"/>
<path d="M558 960 c-137 -16 -299 -90 -408 -185 -74 -65 -110 -118 -110 -160
0 -36 58 -95 94 -95 31 0 33 11 6 35 -26 24 -25 41 4 80 43 56 199 175 213
162 3 -3 0 -30 -7 -59 -6 -29 -22 -141 -35 -248 -13 -107 -26 -206 -30 -220
-3 -14 -8 -68 -11 -121 l-7 -97 32 -17 c18 -9 38 -14 44 -12 7 2 12 32 13 79
1 41 7 84 13 95 5 11 8 33 5 49 -3 15 -3 38 1 51 5 20 8 21 25 10 17 -10 28
-8 73 17 28 16 62 38 74 48 l21 20 17 -32 c19 -37 131 -196 154 -219 9 -9 25
-28 36 -41 26 -33 79 -70 99 -70 21 0 66 21 66 31 0 5 -15 15 -32 23 -40 16
-89 69 -151 161 -26 39 -54 77 -62 86 -8 9 -15 19 -15 24 0 4 -11 23 -25 41
-23 31 -25 64 -3 64 18 0 155 145 192 202 43 69 47 113 12 172 -35 59 -99 107
-165 122 -31 8 -58 13 -61 13 -3 -1 -35 -5 -72 -9z m215 -104 c67 -45 9 -160
-153 -298 -29 -25 -47 -35 -54 -28 -15 15 -62 12 -75 -4 -10 -11 -10 -20 0
-37 10 -20 8 -25 -17 -46 -16 -13 -41 -30 -56 -37 -27 -14 -28 -13 -24 7 11
51 19 104 21 127 1 14 3 27 5 30 1 3 4 29 5 59 2 29 7 65 11 80 4 14 8 37 10
51 7 55 15 90 22 90 4 1 30 7 57 15 70 20 211 15 248 -9z"/>
<path d="M1788 453 c-19 -27 -40 -57 -46 -68 l-11 -20 -1 20 c-1 27 -28 59
-67 79 -47 24 -60 15 -104 -74 l-18 -35 -1 28 c0 41 -15 63 -49 75 -26 9 -31
8 -36 -10 l-7 -20 -21 20 c-36 34 -76 45 -101 28 -16 -10 -27 -11 -40 -4 -19
11 -56 -14 -56 -39 0 -19 -7 -17 -48 16 -47 36 -75 43 -102 24 -17 -12 -24
-12 -36 -2 -12 9 -18 8 -35 -7 -31 -28 -80 -133 -86 -186 -5 -41 -2 -54 21
-87 15 -22 43 -47 61 -56 30 -14 39 -14 67 -2 18 8 48 30 65 50 l32 36 19 -33
c11 -18 36 -41 57 -51 37 -17 40 -17 72 0 34 19 95 80 124 125 16 24 16 23 23
-38 5 -49 12 -65 29 -76 47 -30 59 -25 77 34 18 59 69 170 78 170 3 0 2 -36
-2 -80 -6 -77 -5 -82 18 -105 14 -14 31 -25 39 -25 19 0 37 21 37 42 0 19 65
144 94 183 14 19 15 17 16 -30 1 -107 30 -166 71 -144 16 8 19 22 19 97 0 48
-5 104 -10 124 -11 39 -60 88 -89 88 -9 0 -33 -21 -53 -47z m-368 -55 c0 -53
-130 -198 -177 -198 -20 0 -15 44 13 114 24 61 45 83 65 70 5 -3 20 4 34 14
25 20 65 20 65 0z m-246 4 c15 -25 -82 -160 -135 -187 -47 -25 -52 -21 -45 38
10 70 51 141 78 134 11 -3 27 1 35 9 16 15 59 19 67 6z"/>
</g>
</svg>
